<?xml version="1.0" encoding="UTF-8" standalone="no"?><!DOCTYPE svg PUBLIC "-//W3C//DTD SVG 1.1//EN" "http://www.w3.org/Graphics/SVG/1.1/DTD/svg11.dtd"><svg width="100%" height="100%" viewBox="0 0 3000 2000" version="1.1" xmlns="http://www.w3.org/2000/svg" xmlns:xlink="http://www.w3.org/1999/xlink" xml:space="preserve" xmlns:serif="http://www.serif.com/" style="fill-rule:evenodd;clip-rule:evenodd;stroke-linecap:round;stroke-linejoin:round;stroke-miterlimit:1.5;"><path d="M459.046,1975.846l153.69,-1297.22l502.026,167.425l-655.716,1129.795Z" style="fill:#8e8e8e;"/><path d="M2462.295,1337.625l-1039.804,-764.927l359.823,-332.311l679.981,1097.238Z" style="fill:#8e8e8e;"/><g><path d="M1782.284,241.353c-8.952,2.503 -186.895,73.537 -193.835,76.021c-1.187,0.425 -487.394,192.449 -492.821,194.429c-15.647,5.709 -31.593,14.738 -27.227,7.497c4.976,-8.253 192.816,-402.652 193.694,-404.123c1.399,-2.343 30.233,-64.203 31.589,-65.104c2.532,-1.683 18.303,6.38 35.172,12.397c38.738,13.817 37.823,15.974 76.52,30.027c0.394,0.143 71.974,27.946 76.578,29.966c0.082,0.036 27.746,10.562 35.124,13.77c19.175,8.337 19.798,6.576 38.846,15.117c0.868,0.389 35.878,13.832 41.404,16.255c0.151,0.066 27.565,10.491 35.123,13.771c22.251,9.655 22.91,7.779 45.126,17.601c0.585,0.259 34.314,13.178 41.404,16.254c22.286,9.668 22.913,7.789 45.126,17.602c1.367,0.604 1.44,0.344 17.522,6.489c1.229,0.47 0.754,0.779 0.657,2.031Z" style="fill:#8d8d8d;fill-opacity:1;"/></g><path d="M985.438,557.596l-208.802,334.511l-166.406,-213.207l375.208,-121.304Z" style="fill:#8e8e8e;"/><path d="M1780.252,240.387l-117.475,318.931l-200.047,-197.699l317.522,-121.232Z" style="fill:#8e8e8e;"/><ellipse cx="1465.57" cy="1037.643" rx="667.737" ry="681.309" style="fill:#ebebeb;stroke:#12151a;stroke-width:16.67px;"/><g><path d="M1054.852,348.589c-1.523,-9.423 -2.123,-38.476 -4.984,-71.682c-0.172,-2 0.624,-2.954 1.944,-1.418c19.852,23.098 20.636,23.038 26.627,30.039c1.832,2.141 44.447,49.364 45.137,50.17c18.49,21.619 19.543,20.502 37.99,42.194c13.838,16.271 21.768,21.608 18.979,24.235c-1.98,1.865 -22.641,12.247 -24.641,13.252c-34.796,17.485 -55.473,34.257 -76.432,47.712c-17.655,11.334 -61.262,49.431 -72.937,61.103c-33.76,33.752 -35.633,40.785 -40.171,36.376c-30.93,-30.05 -30.269,-30.526 -61.402,-60.242c-4.772,-4.555 -4.718,-4.587 -58.504,-58.123c-8.119,-8.081 -8.558,-7.588 -8.888,-8.516c-1.311,-3.68 2.052,-1.478 31.061,2.191c27.634,3.495 27.575,3.232 55.131,6.704c43.28,5.453 45.899,7.465 45.619,3.814c-0.479,-6.244 -0.799,-6.171 -9.766,-77.666c-0.854,-6.811 -4.479,-19.276 0.501,-17.604c12.407,4.166 25.524,7.606 27.764,8.193c32.917,8.632 32.294,10.397 65.209,18.812c7.658,1.958 3.042,-4.273 1.763,-49.544Z" style="fill:#e8643a;fill-opacity:1;"/></g><path d="M983.975,568.054l-110.595,-109.173l111.481,14.259l-10.37,-82.314l84.259,24.31l-6.481,-104.68l110.083,122.387l-45.255,24.324l-51.377,34.769l-45.273,38.384l-36.472,37.734Z" style="fill:#f3ac95;"/><g><path d="M1247.363,1586.072l0,-30.208c0,-2.369 -0.326,-3.88 -0.977,-4.531c-0.652,-0.652 -2.162,-0.977 -4.531,-0.977l-12.083,0c-4.738,0 -8.263,-1.155 -10.573,-3.465c-2.31,-2.31 -3.465,-5.834 -3.465,-10.573l0,-30.741c0,-4.738 1.155,-8.263 3.465,-10.573c2.31,-2.31 5.834,-3.465 10.573,-3.465l15.637,0c4.738,0 8.263,1.155 10.573,3.465c2.31,2.31 3.465,5.834 3.465,10.573l0,17.059l-12.261,0l0,-15.104c0,-2.369 -0.326,-3.88 -0.977,-4.531c-0.652,-0.652 -2.162,-0.977 -4.531,-0.977l-8.174,0c-2.251,0 -3.732,0.326 -4.442,0.977c-0.711,0.652 -1.066,2.162 -1.066,4.531l0,26.832c0,2.251 0.355,3.732 1.066,4.442c0.711,0.711 2.192,1.066 4.442,1.066l12.083,0c4.738,0 8.263,1.155 10.573,3.465c2.31,2.31 3.465,5.834 3.465,10.573l0,34.117c0,4.738 -1.155,8.263 -3.465,10.573c-2.31,2.31 -5.834,3.465 -10.573,3.465l-15.459,0c-4.738,0 -8.263,-1.155 -10.573,-3.465c-2.31,-2.31 -3.465,-5.834 -3.465,-10.573l0,-17.059l12.261,0l0,15.104c0,2.251 0.355,3.732 1.066,4.442c0.711,0.711 2.192,1.066 4.442,1.066l7.996,0c2.369,0 3.88,-0.355 4.531,-1.066c0.652,-0.711 0.977,-2.192 0.977,-4.442Z" style="fill:#12151a;"/><path d="M1322.172,1531.52l0,-23.989c0,-2.369 -0.326,-3.88 -0.977,-4.531c-0.652,-0.652 -2.162,-0.977 -4.531,-0.977l-24.344,0l0,-10.484l28.076,0c4.738,0 8.263,1.155 10.573,3.465c2.31,2.31 3.465,5.834 3.465,10.573l0,25.943l-12.261,0Zm0,54.552l0,-58.994l12.261,0l0,60.949c0,4.738 -1.155,8.263 -3.465,10.573c-2.31,2.31 -5.834,3.465 -10.573,3.465l-28.076,0l0,-10.484l24.344,0c2.369,0 3.88,-0.355 4.531,-1.066c0.652,-0.711 0.977,-2.192 0.977,-4.442Zm-36.783,-94.533l12.261,0l0,110.525l-12.261,0l0,-110.525Z" style="fill:#12151a;"/><path d="M1418.659,1586.25l0,-16.348c0,-2.369 -0.326,-3.88 -0.977,-4.531c-0.652,-0.652 -2.162,-0.977 -4.531,-0.977l-8.707,0c-4.738,0 -8.263,-1.155 -10.573,-3.465c-2.31,-2.31 -3.465,-5.834 -3.465,-10.573l0,-20.435c0,-4.738 1.155,-8.263 3.465,-10.573c2.31,-2.31 5.834,-3.465 10.573,-3.465l12.083,0c4.738,0 8.263,1.155 10.573,3.465c2.31,2.31 3.465,5.834 3.465,10.573l0,8.707l-12.083,0l0,-6.93c0,-2.369 -0.326,-3.88 -0.977,-4.531c-0.652,-0.652 -2.162,-0.977 -4.531,-0.977l-4.975,0c-2.251,0 -3.732,0.326 -4.442,0.977c-0.711,0.652 -1.066,2.162 -1.066,4.531l0,16.881c0,2.251 0.355,3.732 1.066,4.442c0.711,0.711 2.192,1.066 4.442,1.066l8.707,0c4.738,0 8.263,1.155 10.573,3.465c2.31,2.31 3.465,5.834 3.465,10.573l0,19.902c0,4.738 -1.155,8.263 -3.465,10.573c-2.31,2.31 -5.834,3.465 -10.573,3.465l-11.905,0c-4.738,0 -8.263,-1.155 -10.573,-3.465c-2.31,-2.31 -3.465,-5.834 -3.465,-10.573l0,-8.707l12.083,0l0,6.93c0,2.251 0.355,3.732 1.066,4.442c0.711,0.711 2.192,1.066 4.442,1.066l4.798,0c2.369,0 3.88,-0.355 4.531,-1.066c0.652,-0.711 0.977,-2.192 0.977,-4.442Z" style="fill:#12151a;"/><path d="M1466.814,1501.846l0,83.338c0,2.251 0.355,3.732 1.066,4.442c0.711,0.711 2.192,1.066 4.442,1.066l6.752,0l0,11.372l-10.484,0c-4.738,0 -8.263,-1.155 -10.573,-3.465c-2.31,-2.31 -3.465,-5.834 -3.465,-10.573l0,-86.181l12.261,0Zm12.261,14.038l0,10.484l-32.34,0l0,-10.484l32.34,0Z" style="fill:#12151a;"/><path d="M1497.733,1515.883l12.261,0l0,70.189c0,2.251 0.355,3.732 1.066,4.442c0.711,0.711 2.192,1.066 4.442,1.066l7.108,0c2.132,0 3.672,-0.474 4.62,-1.422c0.948,-0.948 1.422,-2.606 1.422,-4.975l0,-6.042l0.711,0l0,12.083c0,4.028 -0.977,6.841 -2.932,8.44c-1.955,1.599 -4.472,2.399 -7.552,2.399l-7.108,0c-4.738,0 -8.263,-1.155 -10.573,-3.465c-2.31,-2.31 -3.465,-5.834 -3.465,-10.573l0,-72.144Zm30.919,0l12.261,0l0,86.181l-12.261,0l0,-86.181Z" style="fill:#12151a;"/><path d="M1577.162,1562.084l-12.261,0l0,-32.34c0,-4.738 1.155,-8.263 3.465,-10.573c2.31,-2.31 5.834,-3.465 10.573,-3.465l7.108,0c3.08,0 5.597,0.8 7.552,2.399c1.955,1.599 2.932,4.413 2.932,8.44l0,12.083l-0.711,0l0,-6.042c0,-2.369 -0.474,-4.028 -1.422,-4.975c-0.948,-0.948 -2.488,-1.422 -4.62,-1.422l-7.108,0c-2.251,0 -3.732,0.326 -4.442,0.977c-0.711,0.652 -1.066,2.162 -1.066,4.531l0,30.386Zm18.658,-78.896l12.261,0l0,118.877l-12.261,0l0,-118.877Zm-30.919,72.321l12.261,0l0,30.563c0,2.251 0.355,3.732 1.066,4.442c0.711,0.711 2.192,1.066 4.442,1.066l7.108,0c2.132,0 3.672,-0.474 4.62,-1.422c0.948,-0.948 1.422,-2.606 1.422,-4.975l0,-4.087l0.711,0.178l0,9.951c0,4.028 -0.977,6.841 -2.932,8.44c-1.955,1.599 -4.472,2.399 -7.552,2.399l-7.108,0c-4.738,0 -8.263,-1.155 -10.573,-3.465c-2.31,-2.31 -3.465,-5.834 -3.465,-10.573l0,-32.518Z" style="fill:#12151a;"/><path d="M1645.219,1602.065l-12.261,0l0,-86.181l12.261,0l0,86.181Zm-12.616,-104.662l0,-14.393l12.972,0l0,14.393l-12.972,0Z" style="fill:#12151a;"/><path d="M1703.325,1577.01l0,-45.134c0,-2.369 -0.326,-3.88 -0.977,-4.531c-0.652,-0.652 -2.162,-0.977 -4.531,-0.977l-6.042,0l0,-10.484l9.595,0c4.738,0 8.263,1.155 10.573,3.465c2.31,2.31 3.465,5.834 3.465,10.573l0,47.089l-12.083,0Zm0,9.062l0,-17.947l12.083,0l0,19.902c0,4.738 -1.155,8.263 -3.465,10.573c-2.31,2.31 -5.834,3.465 -10.573,3.465l-10.839,0l0,-10.484l7.285,0c2.369,0 3.88,-0.355 4.531,-1.066c0.652,-0.711 0.977,-2.192 0.977,-4.442Zm-22.034,-54.197l0,45.312l-12.083,0l0,-47.267c0,-4.738 1.155,-8.263 3.465,-10.573c2.31,-2.31 5.834,-3.465 10.573,-3.465l9.595,0l0,10.484l-6.042,0c-2.251,0 -3.732,0.326 -4.442,0.977c-0.711,0.652 -1.066,2.162 -1.066,4.531Zm0,34.828l0,19.369c0,2.251 0.355,3.732 1.066,4.442c0.711,0.711 2.192,1.066 4.442,1.066l5.509,0l0,10.484l-9.062,0c-4.738,0 -8.263,-1.155 -10.573,-3.465c-2.31,-2.31 -3.465,-5.834 -3.465,-10.573l0,-21.323l12.083,0Z" style="fill:#12151a;"/></g><path d="M1218.019,1229.767l4.968,-145.564c0.395,-11.588 -1.808,-19.795 -6.609,-24.62c-4.788,-4.825 -13.572,-7.456 -26.35,-7.892l-111.276,-3.798c-56.418,-1.925 -95.116,-16.112 -116.092,-42.561c-20.975,-26.462 -30.723,-61.373 -29.243,-104.736l6.252,-183.185c1.48,-43.362 14.911,-77.178 40.293,-101.449c25.382,-24.283 66.872,-35.442 124.467,-33.477l155.386,5.303c57.596,1.966 98.221,15.927 121.876,41.884c23.668,25.944 34.763,60.597 33.283,103.96l-3.583,104.986l-181.974,-6.21l2.742,-80.342c0.395,-11.588 -1.808,-19.795 -6.609,-24.62c-4.788,-4.825 -13.572,-7.456 -26.35,-7.892l-43.276,-1.477c-12.527,-0.428 -21.41,1.6 -26.649,6.083c-5.239,4.483 -8.056,12.518 -8.451,24.106l-4.843,141.913c-0.387,11.337 1.878,19.486 6.794,24.448c4.917,4.949 13.639,7.637 26.166,8.064l109.49,3.737c56.418,1.925 95.427,15.534 117.025,40.824c21.612,25.278 31.678,59.598 30.198,102.96l-6.498,190.407c-1.48,43.362 -14.911,77.185 -40.293,101.469c-25.369,24.271 -66.858,35.423 -124.467,33.457l-154.096,-5.259c-57.596,-1.966 -98.38,-15.926 -122.353,-41.88c-23.959,-25.967 -35.198,-60.632 -33.719,-103.994l3.583,-104.986l181.994,6.211l-2.742,80.342c-0.387,11.337 1.878,19.486 6.794,24.448c4.917,4.949 13.639,7.637 26.166,8.064l42.899,1.464c12.778,0.436 21.723,-1.649 26.833,-6.256c5.124,-4.619 7.879,-12.597 8.266,-23.934Z" style="fill:#12151a;fill-rule:nonzero;"/><path d="M1845.498,918.265l-5.818,-164.163c-0.402,-11.331 -3.102,-19.187 -8.101,-23.569c-4.999,-4.382 -13.746,-6.351 -26.241,-5.908l-211.039,7.48l-4.324,-122.001l264.957,-9.391c56.331,-1.996 97.065,8.857 122.201,32.56c25.136,23.69 38.455,56.736 39.958,99.136l6.364,179.549l-177.958,6.307Zm11.351,320.273l-12.081,-340.879l177.958,-6.307l12.627,356.284c1.503,42.4 -9.443,76.312 -32.839,101.736c-23.396,25.41 -63.259,39.114 -119.59,41.11l-264.957,9.391l-4.324,-122.001l211.039,-7.48c12.495,-0.443 21.079,-3.085 25.751,-7.926c4.672,-4.854 6.811,-12.83 6.418,-23.928Zm-331.832,-626.133l177.938,-6.306l27.991,789.769l-177.938,6.306l-27.991,-789.769Z" style="fill:#12151a;fill-rule:nonzero;"/><ellipse cx="1465.57" cy="1027.77" rx="26.901" ry="26.442" style="fill:#ff7800;"/></svg>
